PathFileType	4	(X/Y/Z)	D:\TRACE\spotREDO_2-26-24\spot_justArm_Motion_3_2-v60.trc
DataRate	CameraRate	NumFrames	NumMarkers	Units	OrigDataRate	OrigDataStartFrame	OrigNumFrames
100.00	100.00	      38	9	mm	100.00	1	      7000
Frame#	Time	front left toe			Front right toe			aft left toe			aft right toe			Arm			FL body			FR body			AL Body			AR Body			
		X1	Y1	Z1	X2	Y2	Z2	X3	Y3	Z3	X4	Y4	Z4	X5	Y5	Z5	X6	Y6	Z6	X7	Y7	Z7	X8	Y8	Z8	X9	Y9	Z9	

1	0.000	-220.90337	70.83508	-240.75514	266.84256	67.94408	-206.22398	-255.50389	-35.63031	360.49625	229.93491	-37.84283	401.69055	41.48299	947.18567	-357.14191	-49.90405	615.87097	-335.94434	105.75621	621.15491	-328.57568	-95.64748	470.65466	534.56885	52.20956	470.73758	543.07965	
2	0.010	-220.90077	70.82634	-240.79707	266.82480	67.94717	-206.21829	-255.50531	-35.63468	360.50522	229.97914	-37.83452	401.70596	41.33526	947.87189	-357.66650	-49.94080	615.84259	-335.87680	105.77287	621.16589	-328.48917	-95.63815	470.68777	534.59680	52.67405	470.87094	543.50879	
3	0.020	-220.93210	70.80891	-240.76201	266.77872	67.52570	-206.51210	-255.48518	-35.61423	360.47946	229.94493	-37.87265	401.72543	41.38445	948.45203	-358.17764	-49.91574	615.82458	-335.83987	105.72234	621.16650	-328.46356	-95.56912	470.70206	534.70020	52.67027	470.81924	543.71979	
4	0.030	-220.92931	70.77896	-240.78325	266.76678	67.92283	-206.19774	-255.53949	-35.61954	360.55383	229.91321	-37.85703	401.67392	41.52783	948.96185	-358.76425	-49.90824	615.82574	-335.80829	105.68296	621.13843	-328.44583	-95.56578	470.70041	534.75452	52.67120	470.80630	543.78082	
5	0.040	-220.88835	70.78598	-240.77960	266.71561	67.88340	-206.25758	-255.55061	-35.59122	360.53027	229.90585	-37.87284	401.74878	41.95975	949.31140	-359.19965	-49.89859	615.82275	-335.74680	105.70792	621.14874	-328.37341	-95.55090	470.67529	534.82922	52.66084	470.78452	543.87573	
6	0.050	-220.93538	70.80612	-240.76775	266.87109	67.97673	-206.18484	-255.52106	-35.62466	360.51611	229.90851	-37.85283	401.71701	41.69884	949.85773	-360.00943	-49.88726	615.82355	-335.65967	105.72868	621.09991	-328.28702	-95.58860	470.67056	534.89374	52.57497	470.78201	543.90656	
7	0.060	-220.94112	70.75499	-240.74591	266.86111	67.95700	-206.22202	-255.51668	-35.60496	360.52280	229.92143	-37.86045	401.72565	41.80963	950.25568	-360.62839	-49.92040	615.82483	-335.59631	105.74782	621.09460	-328.21786	-95.60518	470.67984	534.96741	52.61644	470.77264	543.99750	
8	0.070	-220.93138	70.75417	-240.76288	266.77386	67.91004	-206.23021	-255.53780	-35.61811	360.56238	229.89899	-37.84505	401.71207	41.76986	950.59973	-361.00089	-49.89626	615.78552	-335.55215	105.76942	621.05487	-328.14090	-95.72279	470.70309	535.00275	52.45206	470.78879	544.01660	
9	0.080	-220.91777	70.75494	-240.76082	266.71555	67.89105	-206.20688	-255.51398	-35.61930	360.51614	229.92923	-37.84792	401.76758	41.78669	951.11450	-361.41928	-49.84757	615.77637	-335.47763	105.81291	621.06061	-328.07098	-95.75838	470.70389	535.10986	52.35992	470.81088	544.13348	
10	0.090	-220.90826	70.77003	-240.76897	266.64691	67.85708	-206.20705	-255.52396	-35.65931	360.53635	229.88058	-37.87656	401.70621	41.72849	951.55322	-362.08490	-49.83936	615.76599	-335.42050	105.81187	621.05743	-328.03668	-95.84202	470.69751	535.17560	52.15891	470.79056	544.14941	
11	0.100	-220.91681	70.81374	-240.77344	266.66010	67.83986	-206.21901	-255.57021	-35.63461	360.49927	229.81090	-37.86779	401.73047	41.67271	951.99597	-362.80435	-49.89800	615.79596	-335.39908	105.83284	621.08160	-327.98611	-95.94813	470.66388	535.24640	52.04606	470.73724	544.24689	
12	0.110	-220.88979	70.84837	-240.75943	266.85349	67.96301	-206.15135	-255.55003	-35.64653	360.51736	229.86958	-37.85562	401.72009	41.95285	952.37665	-363.07947	-49.88733	615.81067	-335.23895	105.79881	621.06348	-327.93610	-95.90903	470.64395	535.25543	52.06325	470.73969	544.30090	
13	0.120	-220.92249	70.84359	-240.73511	266.72791	67.89600	-206.15378	-255.51657	-35.68011	360.53082	229.91464	-37.87857	401.74658	42.03955	952.71753	-363.40640	-49.89495	615.81329	-335.13104	105.75519	621.09314	-327.85364	-96.00004	470.59497	535.33295	51.95358	470.66220	544.41388	
14	0.130	-220.93077	70.79771	-240.75917	266.74460	67.92719	-206.13559	-255.53030	-35.74013	360.60742	229.92249	-37.89925	401.80804	42.09600	953.03455	-363.94958	-49.87943	615.81329	-335.07736	105.77433	621.06714	-327.77237	-95.98085	470.57770	535.41724	51.91597	470.61905	544.53424	
15	0.140	-220.91327	70.76080	-240.74307	266.73065	67.92998	-206.14467	-255.53297	-35.72103	360.54675	229.93005	-37.87096	401.77325	42.04182	953.59747	-364.82401	-49.95232	615.87946	-334.97638	105.73965	621.06018	-327.67319	-95.91632	470.56174	535.50653	51.99667	470.60400	544.63135	
16	0.150	-220.93172	70.81304	-240.73886	266.75385	67.92749	-206.16846	-255.53249	-35.68037	360.54782	229.95880	-37.86246	401.78433	41.83278	954.01929	-365.31763	-49.99135	615.89624	-334.96765	105.72198	621.07867	-327.62714	-95.97591	470.60352	535.54523	51.89852	470.66873	544.67859	
17	0.160	-220.92230	70.78484	-240.75945	266.80142	67.97887	-206.13448	-255.52643	-35.65648	360.56128	229.98277	-37.86036	401.79489	42.07542	954.45203	-365.74960	-49.94084	615.88116	-334.89661	105.66573	621.07849	-327.53415	-95.87881	470.63486	535.64740	51.94883	470.72913	544.73328	
18	0.170	-220.90601	70.74696	-240.77838	266.89493	67.99998	-206.10588	-255.51024	-35.66121	360.55869	229.92609	-37.83257	401.77258	42.12555	954.79608	-366.37857	-50.01038	615.88483	-334.80234	105.66567	621.03033	-327.41153	-95.85563	470.64261	535.73846	52.06036	470.76501	544.82776	
19	0.180	-220.93579	70.76949	-240.71722	266.79288	67.92846	-206.16273	-255.54636	-35.63673	360.56528	229.92606	-37.86747	401.74744	41.91875	955.33105	-367.08075	-50.05423	615.84235	-334.73303	105.67140	621.03772	-327.38205	-95.89031	470.66357	535.79529	51.94865	470.75830	544.85712	
20	0.190	-220.93912	70.76719	-240.74084	266.77048	67.91805	-206.15416	-255.54535	-35.65033	360.55673	229.93443	-37.84948	401.79956	41.94688	955.77142	-367.42529	-50.08921	615.82855	-334.69882	105.60449	620.95410	-327.27011	-95.87947	470.68594	535.89307	52.00817	470.78287	544.89355	
21	0.200	-220.93555	70.76177	-240.71542	266.76465	67.93029	-206.16168	-255.56648	-35.64386	360.56094	229.92207	-37.85081	401.76953	41.98951	956.12341	-367.91586	-50.07056	615.84644	-334.60226	105.57102	620.95459	-327.18933	-95.84669	470.67258	535.95325	52.01893	470.75177	544.93402	
22	0.210	-220.95744	70.76774	-240.70551	266.70224	67.88428	-206.16757	-255.54242	-35.61514	360.54755	229.95251	-37.83701	401.79001	42.20461	956.90295	-368.46487	-50.06609	615.86432	-334.50174	105.52621	620.94690	-327.08664	-95.92068	470.65875	535.99982	51.98746	470.74628	544.94305	
23	0.220	-220.95850	70.74580	-240.70901	266.88580	68.00262	-206.10727	-255.51869	-35.67055	360.58038	229.94296	-37.88789	401.80173	42.47954	957.40027	-368.76440	-50.06503	615.84662	-334.41208	105.53082	620.93817	-327.03909	-95.88638	470.64328	536.07507	52.12170	470.67624	544.99365	
24	0.230	-220.94644	70.74275	-240.70193	266.86380	68.02086	-206.05202	-255.55284	-35.67052	360.57135	229.97075	-37.88460	401.80154	42.55362	957.77985	-369.27826	-50.13064	615.86804	-334.35071	105.53710	620.96362	-326.96191	-95.87106	470.64014	536.14081	52.07396	470.65189	545.03607	
25	0.240	-220.94087	70.75940	-240.72935	266.81125	67.99097	-206.03902	-255.53941	-35.68000	360.63242	229.96272	-37.90397	401.84064	42.44411	958.28162	-369.86252	-50.09304	615.88464	-334.26123	105.60870	620.97614	-326.84790	-95.91306	470.61337	536.19556	52.08074	470.59232	545.05414	
26	0.250	-220.94876	70.80600	-240.72673	266.74557	67.94645	-206.08299	-255.56108	-35.70540	360.59143	229.98306	-37.88829	401.88748	42.77691	959.00824	-370.50842	-50.09786	615.86835	-334.20825	105.61891	620.98218	-326.79373	-95.92290	470.62399	536.25873	51.94484	470.55008	544.89697	
27	0.260	-220.96686	70.76666	-240.70135	266.61795	67.84966	-206.19695	-255.57231	-35.66610	360.57068	229.93300	-37.89330	401.83807	42.80866	959.46417	-370.92715	-50.07578	615.87341	-334.17120	105.66273	620.99146	-326.70367	-95.93687	470.64160	536.35590	51.92509	470.57315	544.90308	
28	0.270	-220.96529	70.76207	-240.71797	266.69302	67.89455	-206.14595	-255.51410	-35.67990	360.58304	229.93379	-37.90837	401.86090	42.76313	959.75488	-371.40536	-50.05886	615.84375	-334.13837	105.70216	620.98755	-326.62708	-95.88702	470.67291	536.48798	51.92508	470.57413	544.98682	
29	0.280	-220.98302	70.77895	-240.68008	266.89255	68.03815	-206.03265	-255.53485	-35.65643	360.58585	229.94075	-37.88059	401.83929	42.76657	960.25336	-372.25946	-50.04924	615.85608	-334.09650	105.66738	621.00067	-326.55063	-95.83636	470.69571	536.57874	51.95153	470.56931	545.03674	
30	0.290	-220.94733	70.76133	-240.70461	266.77386	67.95398	-206.09073	-255.53018	-35.67818	360.62076	229.90933	-37.86947	401.83444	42.93866	960.82068	-372.75772	-50.05091	615.89417	-334.05402	105.67496	620.99280	-326.49081	-95.85323	470.67856	536.66449	51.94063	470.59625	545.09686	
31	0.300	-220.96599	70.79558	-240.67717	266.63626	67.85764	-206.19666	-255.49225	-35.68548	360.63910	229.90546	-37.89315	401.90842	43.07311	961.35956	-373.11520	-49.99100	615.84741	-334.00851	105.66677	621.00616	-326.40909	-95.84904	470.67059	536.72919	51.94442	470.58582	545.20227	
32	0.310	-220.96619	70.78508	-240.68404	266.61011	67.85487	-206.13988	-255.51111	-35.70085	360.65759	229.90729	-37.90958	401.90573	43.04514	961.68280	-373.84097	-49.94567	615.81390	-333.95749	105.68161	621.03497	-326.35553	-95.89885	470.61984	536.76471	52.22102	470.61157	545.61377	
33	0.320	-220.94275	70.77634	-240.69095	266.68219	67.90540	-206.09421	-255.55461	-35.67315	360.59402	229.86009	-37.93933	401.89407	43.01990	962.01752	-374.60931	-49.96429	615.87311	-333.91302	105.70630	621.01801	-326.26660	-95.88232	470.62964	536.83960	52.19553	470.60483	545.77423	
34	0.330	-220.96182	70.80801	-240.69550	266.72165	67.90892	-206.10667	-255.57083	-35.65029	360.61569	229.91647	-37.92110	401.84836	43.15693	962.63586	-375.04620	-49.91558	615.85864	-333.83942	105.72110	621.00439	-326.20389	-95.91196	470.66422	536.90613	51.85521	470.64435	545.49243	
35	0.340	-220.95670	70.80558	-240.66724	266.76721	67.95333	-206.05212	-255.56113	-35.66232	360.60468	229.89626	-37.88453	401.86069	43.28615	963.18970	-375.39941	-49.87429	615.86163	-333.78311	105.71542	621.03296	-326.15082	-95.99087	470.66843	536.95758	52.18561	470.68527	545.95990	
36	0.350	-220.91571	70.77408	-240.67365	266.70786	67.92657	-206.06183	-255.55637	-35.70087	360.63156	229.85020	-37.88285	401.84540	43.35081	963.69452	-375.99072	-49.82203	615.84076	-333.69263	105.77515	621.04102	-326.09937	-96.01768	470.65372	537.02374	52.14121	470.68112	545.96460	
37	0.360	-220.92688	70.75714	-240.65654	266.69873	67.92504	-206.06195	-255.55820	-35.68483	360.61203	229.89961	-37.94781	401.87708	43.44565	964.16479	-376.73187	-49.76979	615.85175	-333.58301	105.79774	621.04047	-326.08548	-96.02833	470.60913	537.05365	52.13944	470.70572	546.10724	
38	0.370	-220.94321	70.80019	-240.68582	266.71506	67.91401	-206.08658	-255.57565	-35.66167	360.62665	229.91887	-37.88976	401.85721	43.53330	964.56506	-377.28229	-49.76458	615.88916	-333.53442	105.82127	621.07379	-326.03342	-96.05975	470.60870	537.08624	51.80037	470.73703	545.73828	
